<?xml version="1.0" encoding="UTF-8"?>
<!DOCTYPE svg PUBLIC "-//W3C//DTD SVG 1.1//EN" "http://www.w3.org/Graphics/SVG/1.1/DTD/svg11.dtd">
<svg xmlns="http://www.w3.org/2000/svg" version="1.1" width="150px" height="150px" style="shape-rendering:geometricPrecision; text-rendering:geometricPrecision; image-rendering:optimizeQuality; fill-rule:evenodd; clip-rule:evenodd" xmlns:xlink="http://www.w3.org/1999/xlink">
<rect x="0" y="0" width="150" height="150" fill="#fefffe"/>
<g><path fill="#fefffe" stroke="#fefffe" stroke-width="0.5" d="M 0,0 C 50,0 100,0 150,0 C 150,50 150,100 150,150 C 100,150 50,150 0,150 C 0,100 0,50 0,0 Z M 53.99,30.05 C 53.89,30.69 54.05,31.24 54.47,31.7 C 54.89,31.16 55.05,30.54 54.96,29.85 C 55.53,28.48 56.13,27.12 56.76,25.77 C 57.27,26.06 57.68,26.46 57.98,26.97 C 57.5,27.76 57.2,28.61 57.06,29.52 C 56.87,30.36 57,31.12 57.45,31.8 C 58.54,29.73 59.92,27.85 61.59,26.15 C 65.08,23.39 69.05,22.27 73.5,22.79 C 77.17,23.32 80.85,23.82 84.52,24.29 C 85.06,24.24 85.52,24.02 85.9,23.63 C 86.29,23.82 86.58,23.72 86.78,23.33 C 86.78,22.66 86.77,22 86.74,21.33 C 87.37,20.95 88.01,20.61 88.67,20.31 C 88.65,20.09 88.63,19.87 88.61,19.65 C 90.11,19.3 90.77,18.39 90.61,16.91 C 89.79,15.72 88.81,14.68 87.66,13.79 C 83.85,11.84 79.8,10.79 75.5,10.65 C 67.67,10.1 61.49,13.02 56.95,19.4 C 54.56,22.58 53.57,26.13 53.99,30.05 Z M 48.95,20.85 C 44.51,25.52 42.49,31.07 42.88,37.5 C 43.57,46.46 47.59,53.55 54.92,58.77 C 60.56,62.49 66.77,64.44 73.54,64.63 C 79.2,64.92 84.69,64.08 90,62.11 C 89.85,62.6 90.02,62.89 90.51,62.97 C 92.21,62.65 93.81,62.12 95.32,61.36 C 95.9,61.69 96.52,61.79 97.16,61.65 C 97.74,60.8 98.14,59.86 98.36,58.83 C 99.43,58.26 100.47,57.65 101.49,57 C 101.27,55.47 101.16,53.93 101.19,52.36 C 101.19,51.43 101.33,50.52 101.63,49.64 C 100.99,49.68 100.37,49.6 99.76,49.41 C 99.36,48.36 98.76,47.44 97.96,46.65 C 95.61,45.11 93.12,44.89 90.5,46 C 87.48,47.31 84.41,48.51 81.3,49.61 C 76.41,50.93 71.47,51.08 66.49,50.05 C 58.61,48.94 53.24,44.7 50.38,37.31 C 48.67,32.2 48.67,27.09 50.4,22 C 50.84,21.56 51.08,21.03 51.14,20.41 C 51.17,19.49 50.77,19.21 49.94,19.58 C 49.51,19.92 49.18,20.35 48.95,20.85 Z M 31.77,54 C 31.71,63.48 34.35,72.13 39.69,79.96 C 44.1,85.81 49.63,90.25 56.29,93.29 C 63.66,96.65 71.4,98.35 79.5,98.37 C 91.01,98.4 101.51,95.17 111.01,88.69 C 116.38,84.99 118.66,79.93 117.85,73.52 C 116.87,70.19 115.08,67.38 112.48,65.07 C 109,63.18 105.38,62.84 101.6,64.05 C 97.52,66.72 93.33,69.2 89,71.48 C 81.32,74.48 73.5,74.89 65.55,72.7 C 55.47,69.86 47.73,63.95 42.35,54.98 C 39.05,48.87 37.97,42.38 39.11,35.51 C 39.51,33.37 40.15,31.3 41.05,29.32 C 40.91,28.01 40.42,27.9 39.57,28.99 C 34.38,36.52 31.78,44.86 31.77,54 Z M 38.29,124 C 39.41,126.81 41.47,127.84 44.49,127.1 C 46.13,126.85 47.69,126.38 49.17,125.71 C 47.92,125.12 46.6,124.69 45.21,124.42 C 43.86,124.34 42.52,124.27 41.19,124.2 C 40.96,117.97 40.89,111.73 40.97,105.49 C 40.84,104.13 40.21,103.79 39.06,104.47 C 38.65,105.4 38.39,106.37 38.31,107.39 C 38.3,112.93 38.29,118.46 38.29,124 Z M 72.97,106.95 C 72.74,106.9 72.51,106.86 72.28,106.81 C 72.1,106.61 71.88,106.48 71.61,106.44 C 70.9,106.83 70.19,107.21 69.48,107.59 C 69.12,106.92 68.58,106.58 67.84,106.56 C 67.45,106.3 67.01,106.17 66.54,106.16 C 66.03,106.19 65.8,106.44 65.85,106.94 C 65.53,111.83 65.36,116.72 65.33,121.64 C 64.6,121.31 63.85,121.02 63.09,120.76 C 63.94,119.84 64.22,118.76 63.92,117.52 C 62.85,113.81 60.38,111.89 56.49,111.77 C 52.71,112.06 50.26,114.01 49.13,117.61 C 48.39,121.74 49.89,124.77 53.64,126.69 C 56.06,127.51 58.41,127.33 60.68,126.15 C 61.92,125.13 63.07,124.01 64.12,122.8 C 64.55,122.7 64.98,122.6 65.4,122.5 C 65.49,124.94 66.71,126.41 69.08,126.92 C 70.02,128.2 71.08,128.26 72.27,127.1 C 72.9,127.02 73.52,127.05 74.14,127.2 C 74.36,127.71 74.73,127.9 75.26,127.78 C 75.87,127.01 76.57,126.34 77.35,125.75 C 77.69,125.42 77.88,125.02 77.93,124.56 C 81.11,127.63 84.59,128.05 88.39,125.83 C 89.42,124.96 90.32,123.97 91.09,122.85 C 91.37,123.08 91.58,123.36 91.74,123.69 C 91.88,124.57 92.02,125.45 92.17,126.33 C 92.39,126.67 92.69,126.79 93.08,126.69 C 93.73,127.03 94.27,126.91 94.71,126.35 C 94.87,123.09 95.09,119.84 95.39,116.58 C 95.74,115.03 96.45,113.65 97.51,112.46 C 96.38,112.86 95.25,113.27 94.12,113.67 C 93.72,114.08 93.43,114.56 93.26,115.1 C 92.29,115.53 91.56,116.22 91.05,117.19 C 90.4,114.47 88.71,112.75 85.97,112.05 C 85.83,111.7 85.61,111.4 85.31,111.16 C 84.22,110.87 83.11,110.66 81.99,110.54 C 80.89,109.92 79.76,109.35 78.61,108.82 C 78.21,108.52 78.07,108.13 78.18,107.64 C 78.82,106.86 78.77,106.15 78.04,105.53 C 76.7,104.76 75.43,104.89 74.21,105.89 C 73.78,105.4 73.49,104.79 73.34,104.08 C 72.9,103.93 72.62,104.08 72.49,104.53 C 72.59,105.35 72.75,106.16 72.97,106.95 Z M 101.74,126.23 C 103.93,127.35 106.16,127.43 108.43,126.47 C 108.88,127.05 109.04,127.73 108.91,128.49 C 108.68,132.56 106.62,133.97 102.74,132.72 C 101.92,131.85 101.28,130.84 100.82,129.71 C 100.27,129.18 99.73,129.19 99.21,129.73 C 98.93,131.08 99.28,132.26 100.25,133.27 C 102.27,135.32 104.67,135.88 107.43,134.94 C 110.19,133.7 111.44,131.55 111.18,128.51 C 111.33,123.21 111.22,117.92 110.87,112.64 C 110.29,112.02 109.72,112.03 109.16,112.65 C 108.94,115.58 108.83,118.52 108.82,121.48 C 108.25,124.42 106.53,125.45 103.68,124.58 C 103.3,124.36 102.96,124.1 102.66,123.79 C 102.1,123.13 101.82,122.37 101.82,121.5 C 101.9,118.6 101.83,115.71 101.59,112.83 C 100.85,111.91 100.09,111.89 99.29,112.75 C 99.1,115.84 99.09,118.94 99.25,122.04 C 99.69,123.69 100.52,125.09 101.74,126.23 Z"/></g>
<g><path fill="#f2f3f4" d="M 51.78,117.5 C 54.14,113.47 57.06,113.01 60.53,116.12 C 60.86,116.55 61.16,117.01 61.41,117.5 C 61.41,117.75 61.28,117.91 61.01,117.96 C 59.52,118.15 58.01,118.29 56.5,118.37 C 54.86,118.38 53.29,118.09 51.78,117.5 Z M 79,117.74 C 79.99,115.88 81.49,114.63 83.49,113.99 C 85.17,113.98 86.57,114.63 87.69,115.92 C 88.18,116.37 88.54,116.9 88.77,117.51 C 88.76,117.88 88.56,118.09 88.17,118.12 C 86.93,118.12 85.7,118.26 84.49,118.53 C 82.94,118.3 81.37,118.21 79.8,118.24 C 79.46,118.19 79.19,118.03 79,117.74 Z M 93.26,115.1 C 92.96,118.96 92.9,122.82 93.08,126.69 C 92.69,126.79 92.39,126.67 92.17,126.33 C 92.02,125.45 91.88,124.57 91.74,123.69 C 91.58,123.36 91.37,123.08 91.09,122.85 C 90.72,122.25 90.21,122.13 89.57,122.47 C 88.48,123.33 87.31,124.04 86.05,124.63 C 85.23,124.94 84.38,125.07 83.5,125 C 81.27,124.76 79.79,123.59 79.05,121.51 C 79.18,121.31 79.32,121.11 79.45,120.9 C 82.13,120.7 84.81,120.63 87.5,120.7 C 88.09,120.65 88.67,120.51 89.23,120.29 C 90.88,119.84 91.48,118.81 91.05,117.19 C 91.56,116.22 92.29,115.53 93.26,115.1 Z M 63.09,120.76 C 63.85,121.02 64.6,121.31 65.33,121.64 C 65.35,121.93 65.38,122.21 65.4,122.5 C 64.98,122.6 64.55,122.7 64.12,122.8 C 63.68,122.36 63.14,122.19 62.52,122.31 C 61.45,123.18 60.29,123.91 59.02,124.49 C 55.58,125.66 53.04,124.64 51.37,121.42 C 51.97,120.94 52.67,120.7 53.48,120.72 C 56.68,120.72 59.88,120.73 63.09,120.76 Z"/></g>
<g><path fill="#f9fafa" d="M 85.97,112.05 C 83.41,111.53 81.09,112.04 78.99,113.57 C 75.73,116.94 75.38,120.6 77.93,124.56 C 77.88,125.02 77.69,125.42 77.35,125.75 C 76.57,126.34 75.87,127.01 75.26,127.78 C 74.73,127.9 74.36,127.71 74.14,127.2 C 74.46,126.66 74.64,126.07 74.67,125.43 C 74.7,122.79 74.7,120.15 74.67,117.5 C 74.46,115.69 74.03,113.94 73.38,112.24 C 72.83,113.95 72.44,115.71 72.21,117.5 C 72.13,120.7 72.15,123.9 72.27,127.1 C 71.08,128.26 70.02,128.2 69.08,126.92 C 69.66,126.96 70.13,126.77 70.5,126.36 C 70.13,125.68 69.62,125.11 68.98,124.65 C 67.56,121.72 67.33,118.69 68.29,115.56 C 68.49,115.14 68.78,114.8 69.17,114.55 C 69.7,114.54 70.17,114.42 70.6,114.18 C 70.63,113.74 70.52,113.35 70.25,112.99 C 69.45,112.59 68.79,112.04 68.26,111.33 C 67.78,109.77 67.64,108.18 67.84,106.56 C 68.58,106.58 69.12,106.92 69.48,107.59 C 70.19,107.21 70.9,106.83 71.61,106.44 C 71.88,106.48 72.1,106.61 72.28,106.81 C 71.94,107.84 72.14,108.7 72.89,109.39 C 73.81,109.66 74.41,109.35 74.7,108.47 C 74.68,107.36 74.1,106.86 72.97,106.95 C 72.75,106.16 72.59,105.35 72.49,104.53 C 72.62,104.08 72.9,103.93 73.34,104.08 C 73.49,104.79 73.78,105.4 74.21,105.89 C 75.43,104.89 76.7,104.76 78.04,105.53 C 78.77,106.15 78.82,106.86 78.18,107.64 C 78.07,108.13 78.21,108.52 78.61,108.82 C 79.76,109.35 80.89,109.92 81.99,110.54 C 83.11,110.66 84.22,110.87 85.31,111.16 C 85.61,111.4 85.83,111.7 85.97,112.05 Z"/></g>
<g><path fill="#c0b0ac" d="M 85.9,23.63 C 85.52,24.02 85.06,24.24 84.52,24.29 C 80.85,23.82 77.17,23.32 73.5,22.79 C 69.05,22.27 65.08,23.39 61.59,26.15 C 59.92,27.85 58.54,29.73 57.45,31.8 C 57,31.12 56.87,30.36 57.06,29.52 C 57.2,28.61 57.5,27.76 57.98,26.97 C 60.53,22.46 64.37,19.86 69.49,19.16 C 73.26,18.68 76.99,18.88 80.68,19.76 C 82.13,20.36 83.57,20.97 85.02,21.57 C 85.78,22.06 86.07,22.75 85.9,23.63 Z"/></g>
<g><path fill="#e5f6f2" d="M 88.61,19.65 C 88.63,19.87 88.65,20.09 88.67,20.31 C 88.01,20.61 87.37,20.95 86.74,21.33 C 86.77,22 86.78,22.66 86.78,23.33 C 86.58,23.72 86.29,23.82 85.9,23.63 C 86.07,22.75 85.78,22.06 85.02,21.57 C 83.57,20.97 82.13,20.36 80.68,19.76 C 76.99,18.88 73.26,18.68 69.49,19.16 C 64.37,19.86 60.53,22.46 57.98,26.97 C 57.68,26.46 57.27,26.06 56.76,25.77 C 59.31,21.01 63.23,18.08 68.5,16.98 C 71.16,16.58 73.83,16.55 76.5,16.9 C 80.54,17.81 84.58,18.73 88.61,19.65 Z"/></g>
<g><path fill="#e8f9f8" d="M 99.76,49.41 C 100.37,49.6 100.99,49.68 101.63,49.64 C 101.33,50.52 101.19,51.43 101.19,52.36 C 101.16,53.93 101.27,55.47 101.49,57 C 100.47,57.65 99.43,58.26 98.36,58.83 C 98.14,59.86 97.74,60.8 97.16,61.65 C 96.52,61.79 95.9,61.69 95.32,61.36 C 93.81,62.12 92.21,62.65 90.51,62.97 C 90.02,62.89 89.85,62.6 90,62.11 C 93.25,61.08 96.08,59.37 98.49,56.98 C 100.21,54.68 100.63,52.15 99.76,49.41 Z"/></g>
<g><path fill="#769890" d="M 50.4,22 C 50.18,21.29 49.69,20.91 48.95,20.85 C 49.18,20.35 49.51,19.92 49.94,19.58 C 50.77,19.21 51.17,19.49 51.14,20.41 C 51.08,21.03 50.84,21.56 50.4,22 Z"/></g>
<g><path fill="#879691" d="M 53.99,30.05 C 54.31,29.98 54.63,29.92 54.96,29.85 C 55.05,30.54 54.89,31.16 54.47,31.7 C 54.05,31.24 53.89,30.69 53.99,30.05 Z"/></g>
<g><path fill="#c1b0a5" stroke="#c1b0a5" stroke-width="0.5" d="M 31.77,54 C 31.78,44.86 34.38,36.52 39.57,28.99 C 40.42,27.9 40.91,28.01 41.05,29.32 C 38.28,36.22 38.02,43.22 40.29,50.32 C 43.61,59 49.42,65.43 57.72,69.64 C 64.25,73.02 71.18,74.47 78.5,73.98 C 82.09,73.51 85.59,72.68 89,71.48 C 93.33,69.2 97.52,66.72 101.6,64.05 C 105.38,62.84 109,63.18 112.48,65.07 C 115.08,67.38 116.87,70.19 117.85,73.52 C 118.66,79.93 116.38,84.99 111.01,88.69 C 101.51,95.17 91.01,98.4 79.5,98.37 C 68.83,98.32 58.97,95.46 49.92,89.79 C 39.78,82.59 33.85,72.82 32.13,60.5 C 31.91,58.34 31.79,56.17 31.77,54 Z"/></g>
<g><path fill="#11785d" stroke="#11785d" stroke-width="0.5" d="M 48.95,20.85 C 49.69,20.91 50.18,21.29 50.4,22 C 48.67,27.09 48.67,32.2 50.38,37.31 C 53.24,44.7 58.61,48.94 66.49,50.05 C 71.47,51.08 76.41,50.93 81.3,49.61 C 84.41,48.51 87.48,47.31 90.5,46 C 93.12,44.89 95.61,45.11 97.96,46.65 C 98.76,47.44 99.36,48.36 99.76,49.41 C 100.63,52.15 100.21,54.68 98.49,56.98 C 96.08,59.37 93.25,61.08 90,62.11 C 84.69,64.08 79.2,64.92 73.54,64.63 C 66.77,64.44 60.56,62.49 54.92,58.77 C 47.59,53.55 43.57,46.46 42.88,37.5 C 42.49,31.07 44.51,25.52 48.95,20.85 Z"/></g>
<g><path fill="#1f2022" d="M 38.29,124 C 38.29,118.46 38.3,112.93 38.31,107.39 C 38.39,106.37 38.65,105.4 39.06,104.47 C 40.21,103.79 40.84,104.13 40.97,105.49 C 40.89,111.73 40.96,117.97 41.19,124.2 C 42.52,124.27 43.86,124.34 45.21,124.42 C 46.6,124.69 47.92,125.12 49.17,125.71 C 46.73,126.82 44.16,127.28 41.46,127.1 C 39.74,126.75 38.68,125.71 38.29,124 Z M 67.84,106.56 C 67.64,108.18 67.78,109.77 68.26,111.33 C 68.79,112.04 69.45,112.59 70.25,112.99 C 70.52,113.35 70.63,113.74 70.6,114.18 C 70.17,114.42 69.7,114.54 69.17,114.55 C 68.78,114.8 68.49,115.14 68.29,115.56 C 67.33,118.69 67.56,121.72 68.98,124.65 C 69.62,125.11 70.13,125.68 70.5,126.36 C 70.13,126.77 69.66,126.96 69.08,126.92 C 66.71,126.41 65.49,124.94 65.4,122.5 C 65.38,122.21 65.35,121.93 65.33,121.64 C 65.36,116.72 65.53,111.83 65.85,106.94 C 65.8,106.44 66.03,106.19 66.54,106.16 C 67.01,106.17 67.45,106.3 67.84,106.56 Z M 63.09,120.76 C 59.88,120.73 56.68,120.72 53.48,120.72 C 52.67,120.7 51.97,120.94 51.37,121.42 C 53.04,124.64 55.58,125.66 59.02,124.49 C 60.29,123.91 61.45,123.18 62.52,122.31 C 63.14,122.19 63.68,122.36 64.12,122.8 C 63.07,124.01 61.92,125.13 60.68,126.15 C 58.41,127.33 56.06,127.51 53.64,126.69 C 49.89,124.77 48.39,121.74 49.13,117.61 C 50.26,114.01 52.71,112.06 56.49,111.77 C 60.38,111.89 62.85,113.81 63.92,117.52 C 64.22,118.76 63.94,119.84 63.09,120.76 Z M 74.14,127.2 C 73.52,127.05 72.9,127.02 72.27,127.1 C 72.15,123.9 72.13,120.7 72.21,117.5 C 72.44,115.71 72.83,113.95 73.38,112.24 C 74.03,113.94 74.46,115.69 74.67,117.5 C 74.7,120.15 74.7,122.79 74.67,125.43 C 74.64,126.07 74.46,126.66 74.14,127.2 Z M 85.97,112.05 C 88.71,112.75 90.4,114.47 91.05,117.19 C 91.48,118.81 90.88,119.84 89.23,120.29 C 88.67,120.51 88.09,120.65 87.5,120.7 C 84.81,120.63 82.13,120.7 79.45,120.9 C 79.32,121.11 79.18,121.31 79.05,121.51 C 79.79,123.59 81.27,124.76 83.5,125 C 84.38,125.07 85.23,124.94 86.05,124.63 C 87.31,124.04 88.48,123.33 89.57,122.47 C 90.21,122.13 90.72,122.25 91.09,122.85 C 90.32,123.97 89.42,124.96 88.39,125.83 C 84.59,128.05 81.11,127.63 77.93,124.56 C 75.38,120.6 75.73,116.94 78.99,113.57 C 81.09,112.04 83.41,111.53 85.97,112.05 Z M 93.08,126.69 C 92.9,122.82 92.96,118.96 93.26,115.1 C 93.43,114.56 93.72,114.08 94.12,113.67 C 95.25,113.27 96.38,112.86 97.51,112.46 C 96.45,113.65 95.74,115.03 95.39,116.58 C 95.09,119.84 94.87,123.09 94.71,126.35 C 94.27,126.91 93.73,127.03 93.08,126.69 Z M 51.78,117.5 C 53.29,118.09 54.86,118.38 56.5,118.37 C 58.01,118.29 59.52,118.15 61.01,117.96 C 61.28,117.91 61.41,117.75 61.41,117.5 C 60.74,116.13 59.72,115.13 58.35,114.48 C 56.33,113.66 54.57,114.07 53.08,115.7 C 52.6,116.3 52.16,116.9 51.78,117.5 Z M 79,117.74 C 79.19,118.03 79.46,118.19 79.8,118.24 C 81.37,118.21 82.94,118.3 84.49,118.53 C 85.7,118.26 86.93,118.12 88.17,118.12 C 88.56,118.09 88.76,117.88 88.77,117.51 C 88.14,116.27 87.22,115.29 86,114.59 C 84.05,113.57 82.31,113.86 80.78,115.48 C 79.98,116.08 79.39,116.83 79,117.74 Z"/></g>
<g><path fill="#16755b" stroke="#16755b" stroke-width="0.5" d="M 88.61,19.65 C 84.58,18.73 80.54,17.81 76.5,16.9 C 73.83,16.55 71.16,16.58 68.5,16.98 C 63.23,18.08 59.31,21.01 56.76,25.77 C 56.13,27.12 55.53,28.48 54.96,29.85 C 54.63,29.92 54.31,29.98 53.99,30.05 C 53.57,26.13 54.56,22.58 56.95,19.4 C 61.49,13.02 67.67,10.1 75.5,10.65 C 79.8,10.79 83.85,11.84 87.66,13.79 C 88.81,14.68 89.79,15.72 90.61,16.91 C 90.77,18.39 90.11,19.3 88.61,19.65 Z"/></g>
<g><path fill="#1e1f21" d="M 101.74,126.23 C 102.05,125.42 102.36,124.61 102.66,123.79 C 102.96,124.1 103.3,124.36 103.68,124.58 C 106.53,125.45 108.25,124.42 108.82,121.48 C 108.83,118.52 108.94,115.58 109.16,112.65 C 109.72,112.03 110.29,112.02 110.87,112.64 C 111.22,117.92 111.33,123.21 111.18,128.51 C 111.44,131.55 110.19,133.7 107.43,134.94 C 104.67,135.88 102.27,135.32 100.25,133.27 C 99.28,132.26 98.93,131.08 99.21,129.73 C 99.73,129.19 100.27,129.18 100.82,129.71 C 101.28,130.84 101.92,131.85 102.74,132.72 C 106.62,133.97 108.68,132.56 108.91,128.49 C 109.04,127.73 108.88,127.05 108.43,126.47 C 106.16,127.43 103.93,127.35 101.74,126.23 Z"/></g>
<g><path fill="#1e1f21" d="M 102.66,123.79 C 102.36,124.61 102.05,125.42 101.74,126.23 C 100.52,125.09 99.69,123.69 99.25,122.04 C 99.09,118.94 99.1,115.84 99.29,112.75 C 100.09,111.89 100.85,111.91 101.59,112.83 C 101.83,115.71 101.9,118.6 101.82,121.5 C 101.82,122.37 102.1,123.13 102.66,123.79 Z"/></g>
<g><path fill="#202221" d="M 72.28,106.81 C 72.51,106.86 72.74,106.9 72.97,106.95 C 74.1,106.86 74.68,107.36 74.7,108.47 C 74.41,109.35 73.81,109.66 72.89,109.39 C 72.14,108.7 71.94,107.84 72.28,106.81 Z"/></g>
</svg>
